<?xml version="1.0" standalone="no"?>
<!DOCTYPE svg PUBLIC "-//W3C//DTD SVG 20010904//EN"
 "http://www.w3.org/TR/2001/REC-SVG-20010904/DTD/svg10.dtd">
<svg version="1.0" xmlns="http://www.w3.org/2000/svg"
 width="460.000000pt" height="460.000000pt" viewBox="0 0 460.000000 460.000000"
 preserveAspectRatio="xMidYMid meet">
<metadata>
Created by potrace 1.14, written by Peter Selinger 2001-2017
</metadata>
<g transform="translate(0.000000,460.000000) scale(0.100000,-0.100000)"
fill="#000000" stroke="none">
<path d="M4241 4596 c2 -2 56 -39 119 -82 63 -42 117 -80 120 -83 4 -5 70 -50
107 -74 10 -6 13 2 13 32 0 39 -1 40 -90 95 -49 31 -92 56 -95 56 -2 0 -26 14
-52 30 -32 20 -60 30 -87 30 -21 0 -37 -2 -35 -4z"/>
<path d="M4585 4080 c3 -5 8 -10 11 -10 2 0 4 5 4 10 0 6 -5 10 -11 10 -5 0
-7 -4 -4 -10z"/>
<path d="M489 2637 c-66 -19 -140 -68 -174 -116 -29 -42 -30 -46 -30 -160 0
-110 2 -120 26 -157 68 -103 157 -149 269 -141 233 16 352 265 223 465 -22 33
-44 51 -98 77 -81 40 -151 50 -216 32z"/>
<path d="M4005 2635 c-149 -40 -236 -159 -222 -304 20 -229 284 -347 478 -214
66 46 113 144 113 238 0 58 -5 82 -31 137 -26 55 -41 73 -80 98 -54 35 -131
60 -177 59 -17 0 -53 -6 -81 -14z"/>
<path d="M1774 1618 c-46 -49 -50 -38 42 -116 31 -26 89 -58 146 -82 160 -65
204 -74 383 -74 174 -1 210 6 368 66 90 34 219 120 225 150 2 9 -17 32 -42 53
l-46 37 -47 -42 c-52 -46 -152 -97 -248 -126 -84 -26 -323 -26 -415 -1 -89 24
-196 79 -257 132 -28 25 -55 45 -60 45 -5 0 -27 -19 -49 -42z"/>
</g>
</svg>
